# xmcd
#
# Track frame offsets: 
#        150
#        11796
#        24542
#        39270
#        50217
#        65496
#        76095
#        87543
#        99388
#        112097
#        125328
#        137211
#        149969
#        162161
#        173479
#        186827
#        199917
#        213438
#        225511
#        237475
#        249436
#        260714
#        271962
#        284922
#
# Disc length: 3942 seconds
#
# Revision: 0
# Processed by: cddbd v1.5.2PL0 Copyright (c) Steve Scherf et al.
# Submitted via: ExactAudioCopy v0.99pb5
#
DISCID=6e0f6418
DTITLE=Sonnyboy Williamson - Charly Blues MasterworksVol, 5
DYEAR=2009
DGENRE=Blues
TTITLE0=Dont Start Me To Talking
TTITLE1=All My Love In Vain
TTITLE2=The Key (To Your Door)
TTITLE3=I Don't Know
TTITLE4=Cross My Heart
TTITLE5=Fattening Frogs For Snakes
TTITLE6=Born Blind
TTITLE7=Going In Your Direction
TTITLE8=Nine Below Zero
TTITLE9=Mighty Long Time
TTITLE10=Ninety Nine
TTITLE11=Keep It To Yourself
TTITLE12=Dissatisfie
TTITLE13=Your Funeral And My Trial
TTITLE14=Wake Up,Baby
TTITLE15=Let Me Explain
TTITLE16=Your Imagination
TTITLE17=Pontiac Blues
TTITLE18=From The Bottom
TTITLE19=Empty Bedroom
TTITLE20=She Brought Life Back to the Dead
TTITLE21=Mr Down Child
TTITLE22=No Nights By Myself
TTITLE23=Gettin' Out Of Town
EXTD=
EXTT0=
EXTT1=
EXTT2=
EXTT3=
EXTT4=
EXTT5=
EXTT6=
EXTT7=
EXTT8=
EXTT9=
EXTT10=
EXTT11=
EXTT12=
EXTT13=
EXTT14=
EXTT15=
EXTT16=
EXTT17=
EXTT18=
EXTT19=
EXTT20=
EXTT21=
EXTT22=
EXTT23=
PLAYORDER=
